<svg xmlns="http://www.w3.org/2000/svg" viewBox="0 0 1200 760" role="img" aria-label="Mixed Industrial Scrap"><defs><linearGradient id="fade" x1="0" y1="0" x2="0" y2="1"><stop offset="0" stop-color="#000" stop-opacity=".05"/><stop offset=".68" stop-color="#000" stop-opacity=".05"/><stop offset="1" stop-color="#000" stop-opacity=".38"/></linearGradient></defs><rect width="1200" height="760" fill="#071116"/><radialGradient id="g" cx="20%" cy="0%"><stop offset="0" stop-color="#bda879" stop-opacity=".45"/><stop offset="1" stop-color="#7e7164" stop-opacity=".05"/></radialGradient><rect width="1200" height="760" fill="url(#g)"/><rect y="500" width="1200" height="260" fill="#101f26"/><g opacity=".22"><rect x="65" y="420" width="260" height="85" fill="#d9a441"/><rect x="370" y="392" width="210" height="110" fill="#45616d"/><rect x="790" y="378" width="280" height="124" fill="#214552"/></g><circle cx="320" cy="550" r="105" fill="none" stroke="#bda879" stroke-width="38"/><circle cx="320" cy="550" r="38" fill="#7e7164"/><rect x="460" y="500" width="170" height="44" rx="8" fill="#7e7164" transform="rotate(-20 460 500)"/><rect x="550" y="540" width="170" height="44" rx="8" fill="#7e7164" transform="rotate(-14 550 540)"/><rect x="640" y="580" width="170" height="44" rx="8" fill="#7e7164" transform="rotate(-8 640 580)"/><rect x="730" y="620" width="170" height="44" rx="8" fill="#7e7164" transform="rotate(-2 730 620)"/><rect x="820" y="500" width="170" height="44" rx="8" fill="#7e7164" transform="rotate(4 820 500)"/><rect x="910" y="540" width="170" height="44" rx="8" fill="#7e7164" transform="rotate(10 910 540)"/><rect x="1000" y="580" width="170" height="44" rx="8" fill="#7e7164" transform="rotate(16 1000 580)"/><path d="M105 650 C290 580 430 690 620 615 C780 550 950 620 1110 565 L1110 720 L105 720Z" fill="#bda879" opacity=".45"/><rect x="0" y="0" width="1200" height="760" fill="url(#fade)"/><text x="70" y="95" fill="#fff" font-family="Inter,Arial" font-size="54" font-weight="800">Mixed Industrial Scrap</text><text x="72" y="142" fill="#c8d6dc" font-family="Inter,Arial" font-size="26">motors • radiators • e-scrap</text></svg>