<svg xmlns="http://www.w3.org/2000/svg" viewBox="0 0 1200 760" role="img" aria-label="Stainless Steel Scrap"><defs><linearGradient id="fade" x1="0" y1="0" x2="0" y2="1"><stop offset="0" stop-color="#000" stop-opacity=".05"/><stop offset=".68" stop-color="#000" stop-opacity=".05"/><stop offset="1" stop-color="#000" stop-opacity=".38"/></linearGradient></defs><rect width="1200" height="760" fill="#071116"/><radialGradient id="g" cx="20%" cy="0%"><stop offset="0" stop-color="#d9e1e4" stop-opacity=".45"/><stop offset="1" stop-color="#98a5aa" stop-opacity=".05"/></radialGradient><rect width="1200" height="760" fill="url(#g)"/><rect y="500" width="1200" height="260" fill="#101f26"/><g opacity=".22"><rect x="65" y="420" width="260" height="85" fill="#d9a441"/><rect x="370" y="392" width="210" height="110" fill="#45616d"/><rect x="790" y="378" width="280" height="124" fill="#214552"/></g><polygon points="145,510 355,465 395,535 185,580" fill="#98a5aa" stroke="#d9e1e4" stroke-width="6" opacity=".95"/><polygon points="240,503 450,458 490,528 280,573" fill="#98a5aa" stroke="#d9e1e4" stroke-width="6" opacity=".95"/><polygon points="335,496 545,451 585,521 375,566" fill="#98a5aa" stroke="#d9e1e4" stroke-width="6" opacity=".95"/><polygon points="430,489 640,444 680,514 470,559" fill="#98a5aa" stroke="#d9e1e4" stroke-width="6" opacity=".95"/><polygon points="525,482 735,437 775,507 565,552" fill="#98a5aa" stroke="#d9e1e4" stroke-width="6" opacity=".95"/><polygon points="620,475 830,430 870,500 660,545" fill="#98a5aa" stroke="#d9e1e4" stroke-width="6" opacity=".95"/><polygon points="715,468 925,423 965,493 755,538" fill="#98a5aa" stroke="#d9e1e4" stroke-width="6" opacity=".95"/><polygon points="810,461 1020,416 1060,486 850,531" fill="#98a5aa" stroke="#d9e1e4" stroke-width="6" opacity=".95"/><polygon points="905,454 1115,409 1155,479 945,524" fill="#98a5aa" stroke="#d9e1e4" stroke-width="6" opacity=".95"/><rect x="160" y="600" width="880" height="55" fill="#d9e1e4" opacity=".75"/><rect x="0" y="0" width="1200" height="760" fill="url(#fade)"/><text x="70" y="95" fill="#fff" font-family="Inter,Arial" font-size="54" font-weight="800">Stainless Steel Scrap</text><text x="72" y="142" fill="#c8d6dc" font-family="Inter,Arial" font-size="26">304 • 316 • 430</text></svg>