<svg xmlns="http://www.w3.org/2000/svg" viewBox="0 0 1200 760" role="img" aria-label="Copper Scrap"><defs><linearGradient id="fade" x1="0" y1="0" x2="0" y2="1"><stop offset="0" stop-color="#000" stop-opacity=".05"/><stop offset=".68" stop-color="#000" stop-opacity=".05"/><stop offset="1" stop-color="#000" stop-opacity=".38"/></linearGradient></defs><rect width="1200" height="760" fill="#071116"/><radialGradient id="g" cx="20%" cy="0%"><stop offset="0" stop-color="#f0a35a" stop-opacity=".45"/><stop offset="1" stop-color="#b87333" stop-opacity=".05"/></radialGradient><rect width="1200" height="760" fill="url(#g)"/><rect y="500" width="1200" height="260" fill="#101f26"/><g opacity=".22"><rect x="65" y="420" width="260" height="85" fill="#d9a441"/><rect x="370" y="392" width="210" height="110" fill="#45616d"/><rect x="790" y="378" width="280" height="124" fill="#214552"/></g><path d="M95 500 C260 410, 420 595, 600 500 S920 418, 1105 510" fill="none" stroke="#f0a35a" stroke-width="32" stroke-linecap="round" opacity=".95"/><path d="M95 524 C265 435, 430 615, 610 520 S915 440, 1105 536" fill="none" stroke="#b87333" stroke-width="18" stroke-linecap="round"/><path d="M95 535 C260 445, 420 630, 600 535 S920 453, 1105 545" fill="none" stroke="#f0a35a" stroke-width="32" stroke-linecap="round" opacity=".95"/><path d="M95 559 C265 470, 430 650, 610 555 S915 475, 1105 571" fill="none" stroke="#b87333" stroke-width="18" stroke-linecap="round"/><path d="M95 570 C260 480, 420 665, 600 570 S920 488, 1105 580" fill="none" stroke="#f0a35a" stroke-width="32" stroke-linecap="round" opacity=".95"/><path d="M95 594 C265 505, 430 685, 610 590 S915 510, 1105 606" fill="none" stroke="#b87333" stroke-width="18" stroke-linecap="round"/><path d="M95 605 C260 515, 420 700, 600 605 S920 523, 1105 615" fill="none" stroke="#f0a35a" stroke-width="32" stroke-linecap="round" opacity=".95"/><path d="M95 629 C265 540, 430 720, 610 625 S915 545, 1105 641" fill="none" stroke="#b87333" stroke-width="18" stroke-linecap="round"/><circle cx="870" cy="515" r="120" fill="none" stroke="#f0a35a" stroke-width="34"/><circle cx="870" cy="515" r="70" fill="none" stroke="#b87333" stroke-width="24"/><rect x="0" y="0" width="1200" height="760" fill="url(#fade)"/><text x="70" y="95" fill="#fff" font-family="Inter,Arial" font-size="54" font-weight="800">Copper Scrap</text><text x="72" y="142" fill="#c8d6dc" font-family="Inter,Arial" font-size="26">wire • millberry • mixed copper</text></svg>