<svg xmlns="http://www.w3.org/2000/svg" viewBox="0 0 1200 760" role="img" aria-label="Steel & Ferrous Scrap"><defs><linearGradient id="fade" x1="0" y1="0" x2="0" y2="1"><stop offset="0" stop-color="#000" stop-opacity=".05"/><stop offset=".68" stop-color="#000" stop-opacity=".05"/><stop offset="1" stop-color="#000" stop-opacity=".38"/></linearGradient></defs><rect width="1200" height="760" fill="#071116"/><radialGradient id="g" cx="20%" cy="0%"><stop offset="0" stop-color="#9aa6ab" stop-opacity=".45"/><stop offset="1" stop-color="#5c6970" stop-opacity=".05"/></radialGradient><rect width="1200" height="760" fill="url(#g)"/><rect y="500" width="1200" height="260" fill="#101f26"/><g opacity=".22"><rect x="65" y="420" width="260" height="85" fill="#d9a441"/><rect x="370" y="392" width="210" height="110" fill="#45616d"/><rect x="790" y="378" width="280" height="124" fill="#214552"/></g><rect x="95" y="505" width="260" height="48" rx="8" fill="#5c6970" transform="rotate(-8 95 505)"/><rect x="113" y="520" width="225" height="10" fill="#9aa6ab" opacity=".55" transform="rotate(-8 95 505)"/><rect x="205" y="540" width="260" height="48" rx="8" fill="#5c6970" transform="rotate(-1 205 540)"/><rect x="223" y="555" width="225" height="10" fill="#9aa6ab" opacity=".55" transform="rotate(-1 205 540)"/><rect x="315" y="575" width="260" height="48" rx="8" fill="#5c6970" transform="rotate(6 315 575)"/><rect x="333" y="590" width="225" height="10" fill="#9aa6ab" opacity=".55" transform="rotate(6 315 575)"/><rect x="425" y="505" width="260" height="48" rx="8" fill="#5c6970" transform="rotate(-8 425 505)"/><rect x="443" y="520" width="225" height="10" fill="#9aa6ab" opacity=".55" transform="rotate(-8 425 505)"/><rect x="535" y="540" width="260" height="48" rx="8" fill="#5c6970" transform="rotate(-1 535 540)"/><rect x="553" y="555" width="225" height="10" fill="#9aa6ab" opacity=".55" transform="rotate(-1 535 540)"/><rect x="645" y="575" width="260" height="48" rx="8" fill="#5c6970" transform="rotate(6 645 575)"/><rect x="663" y="590" width="225" height="10" fill="#9aa6ab" opacity=".55" transform="rotate(6 645 575)"/><rect x="755" y="505" width="260" height="48" rx="8" fill="#5c6970" transform="rotate(-8 755 505)"/><rect x="773" y="520" width="225" height="10" fill="#9aa6ab" opacity=".55" transform="rotate(-8 755 505)"/><rect x="865" y="540" width="260" height="48" rx="8" fill="#5c6970" transform="rotate(-1 865 540)"/><rect x="883" y="555" width="225" height="10" fill="#9aa6ab" opacity=".55" transform="rotate(-1 865 540)"/><rect x="975" y="575" width="260" height="48" rx="8" fill="#5c6970" transform="rotate(6 975 575)"/><rect x="993" y="590" width="225" height="10" fill="#9aa6ab" opacity=".55" transform="rotate(6 975 575)"/><rect x="0" y="0" width="1200" height="760" fill="url(#fade)"/><text x="70" y="95" fill="#fff" font-family="Inter,Arial" font-size="54" font-weight="800">Steel & Ferrous Scrap</text><text x="72" y="142" fill="#c8d6dc" font-family="Inter,Arial" font-size="26">HMS • shredded steel</text></svg>