<svg xmlns="http://www.w3.org/2000/svg" viewBox="0 0 1200 760" role="img" aria-label="Brass Scrap"><defs><linearGradient id="fade" x1="0" y1="0" x2="0" y2="1"><stop offset="0" stop-color="#000" stop-opacity=".05"/><stop offset=".68" stop-color="#000" stop-opacity=".05"/><stop offset="1" stop-color="#000" stop-opacity=".38"/></linearGradient></defs><rect width="1200" height="760" fill="#071116"/><radialGradient id="g" cx="20%" cy="0%"><stop offset="0" stop-color="#f6d478" stop-opacity=".45"/><stop offset="1" stop-color="#caa24b" stop-opacity=".05"/></radialGradient><rect width="1200" height="760" fill="url(#g)"/><rect y="500" width="1200" height="260" fill="#101f26"/><g opacity=".22"><rect x="65" y="420" width="260" height="85" fill="#d9a441"/><rect x="370" y="392" width="210" height="110" fill="#45616d"/><rect x="790" y="378" width="280" height="124" fill="#214552"/></g><circle cx="130" cy="510" r="52" fill="none" stroke="#f6d478" stroke-width="28"/><rect x="60" y="555" width="140" height="50" rx="20" fill="#caa24b"/><circle cx="245" cy="565" r="52" fill="none" stroke="#f6d478" stroke-width="28"/><rect x="175" y="610" width="140" height="50" rx="20" fill="#caa24b"/><circle cx="360" cy="510" r="52" fill="none" stroke="#f6d478" stroke-width="28"/><rect x="290" y="555" width="140" height="50" rx="20" fill="#caa24b"/><circle cx="475" cy="565" r="52" fill="none" stroke="#f6d478" stroke-width="28"/><rect x="405" y="610" width="140" height="50" rx="20" fill="#caa24b"/><circle cx="590" cy="510" r="52" fill="none" stroke="#f6d478" stroke-width="28"/><rect x="520" y="555" width="140" height="50" rx="20" fill="#caa24b"/><circle cx="705" cy="565" r="52" fill="none" stroke="#f6d478" stroke-width="28"/><rect x="635" y="610" width="140" height="50" rx="20" fill="#caa24b"/><circle cx="820" cy="510" r="52" fill="none" stroke="#f6d478" stroke-width="28"/><rect x="750" y="555" width="140" height="50" rx="20" fill="#caa24b"/><circle cx="935" cy="565" r="52" fill="none" stroke="#f6d478" stroke-width="28"/><rect x="865" y="610" width="140" height="50" rx="20" fill="#caa24b"/><path d="M120 640 L1080 560 L1100 705 L100 705Z" fill="#caa24b" opacity=".55"/><rect x="0" y="0" width="1200" height="760" fill="url(#fade)"/><text x="70" y="95" fill="#fff" font-family="Inter,Arial" font-size="54" font-weight="800">Brass Scrap</text><text x="72" y="142" fill="#c8d6dc" font-family="Inter,Arial" font-size="26">yellow brass • 360 brass</text></svg>