<svg xmlns="http://www.w3.org/2000/svg" viewBox="0 0 1200 760" role="img" aria-label="Aluminium Scrap"><defs><linearGradient id="fade" x1="0" y1="0" x2="0" y2="1"><stop offset="0" stop-color="#000" stop-opacity=".05"/><stop offset=".68" stop-color="#000" stop-opacity=".05"/><stop offset="1" stop-color="#000" stop-opacity=".38"/></linearGradient></defs><rect width="1200" height="760" fill="#071116"/><radialGradient id="g" cx="20%" cy="0%"><stop offset="0" stop-color="#dfe8eb" stop-opacity=".45"/><stop offset="1" stop-color="#b7c6cc" stop-opacity=".05"/></radialGradient><rect width="1200" height="760" fill="url(#g)"/><rect y="500" width="1200" height="260" fill="#101f26"/><g opacity=".22"><rect x="65" y="420" width="260" height="85" fill="#d9a441"/><rect x="370" y="392" width="210" height="110" fill="#45616d"/><rect x="790" y="378" width="280" height="124" fill="#214552"/></g><ellipse cx="150" cy="470" rx="54" ry="22" fill="#dfe8eb" opacity=".95"/><rect x="96" y="470" width="108" height="82" fill="#b7c6cc" opacity=".9"/><ellipse cx="150" cy="552" rx="54" ry="22" fill="#b7c6cc"/><ellipse cx="240" cy="452" rx="54" ry="22" fill="#dfe8eb" opacity=".95"/><rect x="186" y="452" width="108" height="82" fill="#b7c6cc" opacity=".9"/><ellipse cx="240" cy="534" rx="54" ry="22" fill="#b7c6cc"/><ellipse cx="330" cy="434" rx="54" ry="22" fill="#dfe8eb" opacity=".95"/><rect x="276" y="434" width="108" height="82" fill="#b7c6cc" opacity=".9"/><ellipse cx="330" cy="516" rx="54" ry="22" fill="#b7c6cc"/><ellipse cx="420" cy="470" rx="54" ry="22" fill="#dfe8eb" opacity=".95"/><rect x="366" y="470" width="108" height="82" fill="#b7c6cc" opacity=".9"/><ellipse cx="420" cy="552" rx="54" ry="22" fill="#b7c6cc"/><ellipse cx="510" cy="452" rx="54" ry="22" fill="#dfe8eb" opacity=".95"/><rect x="456" y="452" width="108" height="82" fill="#b7c6cc" opacity=".9"/><ellipse cx="510" cy="534" rx="54" ry="22" fill="#b7c6cc"/><ellipse cx="600" cy="434" rx="54" ry="22" fill="#dfe8eb" opacity=".95"/><rect x="546" y="434" width="108" height="82" fill="#b7c6cc" opacity=".9"/><ellipse cx="600" cy="516" rx="54" ry="22" fill="#b7c6cc"/><ellipse cx="690" cy="470" rx="54" ry="22" fill="#dfe8eb" opacity=".95"/><rect x="636" y="470" width="108" height="82" fill="#b7c6cc" opacity=".9"/><ellipse cx="690" cy="552" rx="54" ry="22" fill="#b7c6cc"/><ellipse cx="780" cy="452" rx="54" ry="22" fill="#dfe8eb" opacity=".95"/><rect x="726" y="452" width="108" height="82" fill="#b7c6cc" opacity=".9"/><ellipse cx="780" cy="534" rx="54" ry="22" fill="#b7c6cc"/><ellipse cx="870" cy="434" rx="54" ry="22" fill="#dfe8eb" opacity=".95"/><rect x="816" y="434" width="108" height="82" fill="#b7c6cc" opacity=".9"/><ellipse cx="870" cy="516" rx="54" ry="22" fill="#b7c6cc"/><ellipse cx="960" cy="470" rx="54" ry="22" fill="#dfe8eb" opacity=".95"/><rect x="906" y="470" width="108" height="82" fill="#b7c6cc" opacity=".9"/><ellipse cx="960" cy="552" rx="54" ry="22" fill="#b7c6cc"/><path d="M95 602 C260 520 400 635 545 560 C715 472 865 638 1105 545 L1105 720 L95 720Z" fill="#b7c6cc" opacity=".65"/><rect x="0" y="0" width="1200" height="760" fill="url(#fade)"/><text x="70" y="95" fill="#fff" font-family="Inter,Arial" font-size="54" font-weight="800">Aluminium Scrap</text><text x="72" y="142" fill="#c8d6dc" font-family="Inter,Arial" font-size="26">UBC cans • extrusion • wheels</text></svg>