<svg xmlns="http://www.w3.org/2000/svg" viewBox="0 0 1200 760" role="img" aria-label="Global Trading Network"><defs><linearGradient id="fade" x1="0" y1="0" x2="0" y2="1"><stop offset="0" stop-color="#000" stop-opacity=".05"/><stop offset=".68" stop-color="#000" stop-opacity=".05"/><stop offset="1" stop-color="#000" stop-opacity=".38"/></linearGradient></defs><rect width="1200" height="760" fill="#071116"/><radialGradient id="g" cx="20%" cy="0%"><stop offset="0" stop-color="#d9a441" stop-opacity=".45"/><stop offset="1" stop-color="#243b50" stop-opacity=".05"/></radialGradient><rect width="1200" height="760" fill="url(#g)"/><rect y="500" width="1200" height="260" fill="#101f26"/><g opacity=".22"><rect x="65" y="420" width="260" height="85" fill="#d9a441"/><rect x="370" y="392" width="210" height="110" fill="#45616d"/><rect x="790" y="378" width="280" height="124" fill="#214552"/></g><circle cx="600" cy="500" r="185" fill="none" stroke="#d9a441" stroke-width="6" opacity=".9"/><ellipse cx="600" cy="500" rx="185" ry="70" fill="none" stroke="#d9a441" stroke-width="4" opacity=".6"/><ellipse cx="600" cy="500" rx="185" ry="125" fill="none" stroke="#d9a441" stroke-width="4" opacity=".6"/><line x1="455" y1="315" x2="455" y2="685" stroke="#d9a441" stroke-width="4" opacity=".35"/><line x1="525" y1="315" x2="525" y2="685" stroke="#d9a441" stroke-width="4" opacity=".35"/><line x1="600" y1="315" x2="600" y2="685" stroke="#d9a441" stroke-width="4" opacity=".35"/><line x1="675" y1="315" x2="675" y2="685" stroke="#d9a441" stroke-width="4" opacity=".35"/><line x1="745" y1="315" x2="745" y2="685" stroke="#d9a441" stroke-width="4" opacity=".35"/><circle cx="470" cy="430" r="12" fill="#d9a441"/><circle cx="470" cy="430" r="28" fill="#d9a441" opacity=".15"/><circle cx="720" cy="390" r="12" fill="#d9a441"/><circle cx="720" cy="390" r="28" fill="#d9a441" opacity=".15"/><circle cx="640" cy="575" r="12" fill="#d9a441"/><circle cx="640" cy="575" r="28" fill="#d9a441" opacity=".15"/><circle cx="825" cy="525" r="12" fill="#d9a441"/><circle cx="825" cy="525" r="28" fill="#d9a441" opacity=".15"/><circle cx="360" cy="560" r="12" fill="#d9a441"/><circle cx="360" cy="560" r="28" fill="#d9a441" opacity=".15"/><rect x="0" y="0" width="1200" height="760" fill="url(#fade)"/><text x="70" y="95" fill="#fff" font-family="Inter,Arial" font-size="54" font-weight="800">Global Trading Network</text><text x="72" y="142" fill="#c8d6dc" font-family="Inter,Arial" font-size="26">buyers • suppliers • logistics</text></svg>