<svg xmlns="http://www.w3.org/2000/svg" viewBox="0 0 1200 760" role="img" aria-label="Lead & Battery Scrap"><defs><linearGradient id="fade" x1="0" y1="0" x2="0" y2="1"><stop offset="0" stop-color="#000" stop-opacity=".05"/><stop offset=".68" stop-color="#000" stop-opacity=".05"/><stop offset="1" stop-color="#000" stop-opacity=".38"/></linearGradient></defs><rect width="1200" height="760" fill="#071116"/><radialGradient id="g" cx="20%" cy="0%"><stop offset="0" stop-color="#73818a" stop-opacity=".45"/><stop offset="1" stop-color="#3f4b51" stop-opacity=".05"/></radialGradient><rect width="1200" height="760" fill="url(#g)"/><rect y="500" width="1200" height="260" fill="#101f26"/><g opacity=".22"><rect x="65" y="420" width="260" height="85" fill="#d9a441"/><rect x="370" y="392" width="210" height="110" fill="#45616d"/><rect x="790" y="378" width="280" height="124" fill="#214552"/></g><rect x="140" y="515" width="105" height="82" rx="10" fill="#3f4b51" stroke="#73818a" stroke-width="6"/><rect x="170" y="501" width="45" height="14" fill="#73818a"/><text x="192" y="568" fill="#fff" font-family="Arial" font-size="24" text-anchor="middle">Pb</text><rect x="265" y="567" width="105" height="82" rx="10" fill="#3f4b51" stroke="#73818a" stroke-width="6"/><rect x="295" y="553" width="45" height="14" fill="#73818a"/><text x="317" y="620" fill="#fff" font-family="Arial" font-size="24" text-anchor="middle">Pb</text><rect x="390" y="515" width="105" height="82" rx="10" fill="#3f4b51" stroke="#73818a" stroke-width="6"/><rect x="420" y="501" width="45" height="14" fill="#73818a"/><text x="442" y="568" fill="#fff" font-family="Arial" font-size="24" text-anchor="middle">Pb</text><rect x="515" y="567" width="105" height="82" rx="10" fill="#3f4b51" stroke="#73818a" stroke-width="6"/><rect x="545" y="553" width="45" height="14" fill="#73818a"/><text x="567" y="620" fill="#fff" font-family="Arial" font-size="24" text-anchor="middle">Pb</text><rect x="640" y="515" width="105" height="82" rx="10" fill="#3f4b51" stroke="#73818a" stroke-width="6"/><rect x="670" y="501" width="45" height="14" fill="#73818a"/><text x="692" y="568" fill="#fff" font-family="Arial" font-size="24" text-anchor="middle">Pb</text><rect x="765" y="567" width="105" height="82" rx="10" fill="#3f4b51" stroke="#73818a" stroke-width="6"/><rect x="795" y="553" width="45" height="14" fill="#73818a"/><text x="817" y="620" fill="#fff" font-family="Arial" font-size="24" text-anchor="middle">Pb</text><rect x="890" y="515" width="105" height="82" rx="10" fill="#3f4b51" stroke="#73818a" stroke-width="6"/><rect x="920" y="501" width="45" height="14" fill="#73818a"/><text x="942" y="568" fill="#fff" font-family="Arial" font-size="24" text-anchor="middle">Pb</text><rect x="1015" y="567" width="105" height="82" rx="10" fill="#3f4b51" stroke="#73818a" stroke-width="6"/><rect x="1045" y="553" width="45" height="14" fill="#73818a"/><text x="1067" y="620" fill="#fff" font-family="Arial" font-size="24" text-anchor="middle">Pb</text><rect x="0" y="0" width="1200" height="760" fill="url(#fade)"/><text x="70" y="95" fill="#fff" font-family="Inter,Arial" font-size="54" font-weight="800">Lead & Battery Scrap</text><text x="72" y="142" fill="#c8d6dc" font-family="Inter,Arial" font-size="26">lead • battery material</text></svg>