<svg xmlns="http://www.w3.org/2000/svg" viewBox="0 0 1200 760" role="img" aria-label="Export Logistics"><defs><linearGradient id="fade" x1="0" y1="0" x2="0" y2="1"><stop offset="0" stop-color="#000" stop-opacity=".05"/><stop offset=".68" stop-color="#000" stop-opacity=".05"/><stop offset="1" stop-color="#000" stop-opacity=".38"/></linearGradient></defs><rect width="1200" height="760" fill="#071116"/><radialGradient id="g" cx="20%" cy="0%"><stop offset="0" stop-color="#49a0bc" stop-opacity=".45"/><stop offset="1" stop-color="#1f5f7a" stop-opacity=".05"/></radialGradient><rect width="1200" height="760" fill="url(#g)"/><rect y="500" width="1200" height="260" fill="#101f26"/><g opacity=".22"><rect x="65" y="420" width="260" height="85" fill="#d9a441"/><rect x="370" y="392" width="210" height="110" fill="#45616d"/><rect x="790" y="378" width="280" height="124" fill="#214552"/></g><rect x="95" y="440" width="310" height="135" rx="8" fill="#1f5f7a"/><g opacity=".35"><line x1="125" y1="448" x2="125" y2="567" stroke="#fff" stroke-width="4"/><line x1="170" y1="448" x2="170" y2="567" stroke="#fff" stroke-width="4"/><line x1="215" y1="448" x2="215" y2="567" stroke="#fff" stroke-width="4"/><line x1="260" y1="448" x2="260" y2="567" stroke="#fff" stroke-width="4"/><line x1="305" y1="448" x2="305" y2="567" stroke="#fff" stroke-width="4"/><line x1="350" y1="448" x2="350" y2="567" stroke="#fff" stroke-width="4"/></g><rect x="350" y="405" width="310" height="135" rx="8" fill="#49a0bc"/><g opacity=".35"><line x1="380" y1="413" x2="380" y2="532" stroke="#fff" stroke-width="4"/><line x1="425" y1="413" x2="425" y2="532" stroke="#fff" stroke-width="4"/><line x1="470" y1="413" x2="470" y2="532" stroke="#fff" stroke-width="4"/><line x1="515" y1="413" x2="515" y2="532" stroke="#fff" stroke-width="4"/><line x1="560" y1="413" x2="560" y2="532" stroke="#fff" stroke-width="4"/><line x1="605" y1="413" x2="605" y2="532" stroke="#fff" stroke-width="4"/></g><rect x="605" y="455" width="310" height="135" rx="8" fill="#1f5f7a"/><g opacity=".35"><line x1="635" y1="463" x2="635" y2="582" stroke="#fff" stroke-width="4"/><line x1="680" y1="463" x2="680" y2="582" stroke="#fff" stroke-width="4"/><line x1="725" y1="463" x2="725" y2="582" stroke="#fff" stroke-width="4"/><line x1="770" y1="463" x2="770" y2="582" stroke="#fff" stroke-width="4"/><line x1="815" y1="463" x2="815" y2="582" stroke="#fff" stroke-width="4"/><line x1="860" y1="463" x2="860" y2="582" stroke="#fff" stroke-width="4"/></g><rect x="800" y="395" width="310" height="135" rx="8" fill="#49a0bc"/><g opacity=".35"><line x1="830" y1="403" x2="830" y2="522" stroke="#fff" stroke-width="4"/><line x1="875" y1="403" x2="875" y2="522" stroke="#fff" stroke-width="4"/><line x1="920" y1="403" x2="920" y2="522" stroke="#fff" stroke-width="4"/><line x1="965" y1="403" x2="965" y2="522" stroke="#fff" stroke-width="4"/><line x1="1010" y1="403" x2="1010" y2="522" stroke="#fff" stroke-width="4"/><line x1="1055" y1="403" x2="1055" y2="522" stroke="#fff" stroke-width="4"/></g><rect x="0" y="610" width="1200" height="32" fill="#24323a"/><rect x="0" y="0" width="1200" height="760" fill="url(#fade)"/><text x="70" y="95" fill="#fff" font-family="Inter,Arial" font-size="54" font-weight="800">Export Logistics</text><text x="72" y="142" fill="#c8d6dc" font-family="Inter,Arial" font-size="26">containers • port • freight</text></svg>