<svg xmlns="http://www.w3.org/2000/svg" viewBox="0 0 1200 760" role="img" aria-label="Nickel Alloy Scrap"><defs><linearGradient id="fade" x1="0" y1="0" x2="0" y2="1"><stop offset="0" stop-color="#000" stop-opacity=".05"/><stop offset=".68" stop-color="#000" stop-opacity=".05"/><stop offset="1" stop-color="#000" stop-opacity=".38"/></linearGradient></defs><rect width="1200" height="760" fill="#071116"/><radialGradient id="g" cx="20%" cy="0%"><stop offset="0" stop-color="#cdd6da" stop-opacity=".45"/><stop offset="1" stop-color="#8a9499" stop-opacity=".05"/></radialGradient><rect width="1200" height="760" fill="url(#g)"/><rect y="500" width="1200" height="260" fill="#101f26"/><g opacity=".22"><rect x="65" y="420" width="260" height="85" fill="#d9a441"/><rect x="370" y="392" width="210" height="110" fill="#45616d"/><rect x="790" y="378" width="280" height="124" fill="#214552"/></g><polygon points="140,510 210,480 270,535 236,605 158,592" fill="#8a9499" stroke="#cdd6da" stroke-width="5"/><polygon points="245,540 315,510 375,565 341,635 263,622" fill="#8a9499" stroke="#cdd6da" stroke-width="5"/><polygon points="350,570 420,540 480,595 446,665 368,652" fill="#8a9499" stroke="#cdd6da" stroke-width="5"/><polygon points="455,600 525,570 585,625 551,695 473,682" fill="#8a9499" stroke="#cdd6da" stroke-width="5"/><polygon points="560,510 630,480 690,535 656,605 578,592" fill="#8a9499" stroke="#cdd6da" stroke-width="5"/><polygon points="665,540 735,510 795,565 761,635 683,622" fill="#8a9499" stroke="#cdd6da" stroke-width="5"/><polygon points="770,570 840,540 900,595 866,665 788,652" fill="#8a9499" stroke="#cdd6da" stroke-width="5"/><polygon points="875,600 945,570 1005,625 971,695 893,682" fill="#8a9499" stroke="#cdd6da" stroke-width="5"/><polygon points="980,510 1050,480 1110,535 1076,605 998,592" fill="#8a9499" stroke="#cdd6da" stroke-width="5"/><circle cx="900" cy="535" r="90" fill="#cdd6da" opacity=".35"/><rect x="0" y="0" width="1200" height="760" fill="url(#fade)"/><text x="70" y="95" fill="#fff" font-family="Inter,Arial" font-size="54" font-weight="800">Nickel Alloy Scrap</text><text x="72" y="142" fill="#c8d6dc" font-family="Inter,Arial" font-size="26">nickel • alloy • high value</text></svg>